<?xml version="1.0" encoding="UTF-8"?>
<svg id="Layer_1" data-name="Layer 1" xmlns="http://www.w3.org/2000/svg" viewBox="0 0 595.28 841.89">
  <defs>
    <style>
      .cls-1 {
        letter-spacing: .02em;
      }

      .cls-2 {
        letter-spacing: .02em;
      }

      .cls-3 {
        font-family: Garamond, Garamond;
        font-size: 30px;
      }

      .cls-3, .cls-4, .cls-5 {
        fill: #8b5e3c;
      }

      .cls-4 {
        font-family: Consolas, Consolas;
        font-size: 14px;
        letter-spacing: .11em;
      }

      .cls-6 {
        letter-spacing: -.03em;
      }

      .cls-7 {
        letter-spacing: -.1em;
      }

      .cls-8 {
        letter-spacing: -.03em;
      }

      .cls-9 {
        letter-spacing: 0em;
      }
    </style>
  </defs>
  <path class="cls-5" d="m308.66,314.1h-6.97v21.93c4.2.51,7.45,4.32,7.45,8.93v16.74c0,4.61-3.25,8.42-7.45,8.93v15.48h66v-9.03c0-34.77-26.43-62.97-59.03-62.97Zm-11.34,21.88v-21.88h-8.61c-32.04,0-58.02,27.71-58.02,61.9v10.1h66.63v-15.42c-4.6-.05-8.32-4.05-8.32-8.98v-16.74c0-4.93,3.72-8.93,8.32-8.98Z"/>
  <path class="cls-5" d="m392.64,404.7c0,3.68-1.5,7.02-3.91,9.44-2.42,2.42-5.75,3.91-9.44,3.91h-12.26c-4.44,30.39-30.61,53.73-62.24,53.73h-10.58c-35.08,0-63.52-28.44-63.52-63.52v-16.48h149.03c7.14,0,12.92,5.78,12.92,12.92Z"/>
  <g>
    <path class="cls-5" d="m317.93,175.61s.35.23,1.02.68c.68.44,1.64,1.15,2.86,2.12.3.25.61.52.95.8.17.14.34.28.51.43.17.15.34.31.52.48.35.33.72.67,1.1,1.03.38.37.75.76,1.14,1.17,1.56,1.65,3.27,3.63,4.94,6.06,1.67,2.42,3.33,5.27,4.78,8.55.1.2.18.41.27.62.09.21.17.42.26.64.17.43.34.86.52,1.29.15.44.31.89.47,1.34.08.23.16.45.23.68l.12.34c.04.12.07.23.1.35.14.47.27.94.41,1.42.07.24.14.48.2.72.06.25.11.49.17.74.11.49.23.99.35,1.49.06.25.1.51.15.77.05.26.1.52.14.79.69,4.21.69,8.83-.17,13.4l-.08.43-.09.43c-.06.29-.12.57-.18.86-.07.28-.14.57-.21.85l-.11.43-.12.42c-.3,1.14-.68,2.25-1.08,3.36-.82,2.21-1.81,4.38-2.99,6.43-2.33,4.12-5.21,7.62-8.26,10.54-2.97,2.82-5.89,5.3-8.59,7.7-1.35,1.2-2.64,2.38-3.87,3.56-1.22,1.18-2.37,2.36-3.44,3.55-.26.3-.53.59-.79.89-.25.3-.5.6-.75.89-.48.58-.93,1.15-1.34,1.76-.41.6-.81,1.2-1.16,1.82-.36.61-.68,1.23-.98,1.85-1.2,2.48-1.93,4.95-2.27,7.19-.34,2.24-.26,4.24.02,5.83.06.4.16.77.23,1.12.05.17.1.34.14.5.02.08.05.16.07.24.03.08.05.15.08.23.05.15.1.29.14.43.05.14.1.26.15.39.1.25.19.47.28.66.09.19.17.37.24.51.08.14.14.26.19.36.1.19.16.29.16.29,0,0-.07-.09-.2-.25-.07-.08-.15-.19-.25-.31-.1-.13-.2-.28-.33-.46-.13-.17-.25-.38-.39-.6-.07-.11-.15-.23-.22-.36-.07-.13-.14-.27-.22-.41-.04-.07-.08-.14-.12-.22-.04-.08-.07-.15-.11-.23-.07-.16-.15-.32-.23-.49-.14-.35-.3-.72-.42-1.13-.55-1.62-.95-3.76-.91-6.27.04-2.5.5-5.36,1.53-8.31.26-.74.54-1.48.87-2.23.32-.75.69-1.49,1.09-2.23.4-.74.86-1.49,1.33-2.2.24-.35.48-.7.72-1.06.25-.35.5-.7.76-1.05,1.03-1.4,2.15-2.78,3.33-4.15,1.19-1.37,2.45-2.72,3.75-4.06,2.6-2.7,5.4-5.36,8.14-8.18,2.64-2.73,5.1-5.88,7.12-9.44,1.02-1.77,1.88-3.62,2.62-5.49.35-.94.7-1.88.98-2.83l.11-.36.1-.36c.07-.24.13-.48.2-.71.06-.24.12-.48.18-.72l.09-.36.08-.36c.86-3.83,1.06-7.68.7-11.3-.02-.23-.05-.45-.08-.67-.03-.22-.05-.45-.09-.67-.07-.45-.14-.9-.22-1.35-.04-.22-.07-.45-.11-.67-.05-.22-.09-.44-.14-.66-.09-.44-.18-.87-.27-1.31-.02-.11-.04-.22-.07-.32l-.08-.32c-.05-.21-.11-.42-.16-.63-.11-.42-.22-.84-.32-1.26-.12-.41-.25-.82-.37-1.22-.06-.2-.12-.4-.18-.61-.06-.2-.12-.4-.19-.6-1.05-3.16-2.32-6-3.63-8.5-1.31-2.51-2.7-4.65-3.98-6.48-.33-.45-.63-.9-.94-1.31-.32-.41-.62-.8-.92-1.18-.15-.19-.29-.37-.43-.55-.15-.17-.29-.34-.43-.51-.28-.33-.55-.65-.8-.95-1.04-1.17-1.87-2.07-2.46-2.63-.58-.59-.89-.89-.89-.89Z"/>
    <path class="cls-5" d="m324.48,202.24s.03.1.09.29c.06.19.16.47.26.85.21.75.5,1.89.68,3.4.02.19.05.38.07.58.02.2.03.41.05.62.04.42.05.87.06,1.34,0,.94,0,1.96-.11,3.05-.1,1.09-.27,2.26-.52,3.48-.25,1.22-.59,2.49-1.01,3.79-.84,2.61-2.04,5.35-3.59,8.09-.77,1.37-1.63,2.75-2.57,4.11-.47.68-.96,1.36-1.48,2.03-.26.34-.52.67-.78,1-.26.33-.53.66-.79,1-2.15,2.63-4.51,5.23-6.89,7.87-1.19,1.32-2.39,2.66-3.57,4.03-.29.34-.58.69-.88,1.04l-.44.52-.43.53c-.28.35-.57.71-.86,1.07-.28.36-.55.72-.83,1.09-.29.36-.54.74-.81,1.1-.26.37-.54.73-.78,1.11-.25.37-.5.75-.75,1.12-.24.38-.46.76-.7,1.13-.12.19-.23.38-.35.56-.11.19-.21.39-.32.58-.21.38-.43.76-.63,1.15-.19.39-.38.77-.58,1.15-.18.39-.35.78-.53,1.17-1.36,3.15-2.25,6.45-2.78,9.68-.5,3.24-.66,6.41-.51,9.38.12,2.97.54,5.74,1.09,8.23.56,2.49,1.28,4.69,2.02,6.57.74,1.89,1.52,3.45,2.2,4.71.7,1.24,1.29,2.18,1.7,2.8.42.62.64.95.64.95,0,0-.28-.26-.81-.77-.53-.51-1.28-1.3-2.2-2.4-.9-1.11-1.95-2.54-3.02-4.34-1.06-1.8-2.14-3.98-3.08-6.54-.92-2.56-1.72-5.49-2.19-8.74-.49-3.25-.63-6.81-.32-10.55.33-3.73,1.14-7.64,2.6-11.45.19-.47.38-.94.58-1.42.21-.47.43-.93.64-1.4.23-.46.46-.91.7-1.36.12-.23.24-.45.35-.68.13-.22.26-.44.38-.66.26-.44.51-.89.78-1.32.28-.43.55-.85.83-1.28.27-.43.57-.84.86-1.25.3-.41.58-.84.89-1.23.31-.4.61-.8.92-1.19.31-.39.63-.77.94-1.15l.47-.57.48-.55c.32-.36.63-.73.95-1.08,1.28-1.41,2.56-2.75,3.82-4.03,2.53-2.56,4.97-4.92,7.2-7.24.27-.29.55-.58.82-.87.27-.29.54-.57.8-.86.52-.57,1.02-1.14,1.51-1.72.98-1.15,1.88-2.32,2.71-3.48,1.67-2.32,3.05-4.65,4.11-6.89.53-1.12.99-2.22,1.38-3.29.38-1.07.69-2.1.93-3.08.25-.98.41-1.92.54-2.79.05-.44.12-.85.14-1.26.02-.2.03-.4.05-.59,0-.19.02-.38.03-.56.06-1.46,0-2.61-.07-3.39-.03-.39-.08-.68-.1-.89-.02-.2-.03-.3-.03-.3Z"/>
    <path class="cls-5" d="m295.81,173.92s.32.08.93.25c.15.04.33.09.52.14.19.06.39.14.61.21.22.08.46.16.72.25.26.09.52.22.8.34,1.14.47,2.49,1.2,3.99,2.24,1.49,1.03,3.11,2.4,4.7,4.2,1.59,1.8,3.14,4.02,4.44,6.71.63,1.35,1.24,2.8,1.69,4.36.26.77.44,1.58.64,2.4.1.41.16.83.24,1.25.04.21.08.42.12.64.04.21.06.43.09.64.06.43.11.87.17,1.31.03.44.07.88.1,1.33.04.45.05.9.06,1.35,0,.23,0,.45.01.68v.34s0,.34,0,.34c-.01.46-.03.92-.04,1.38-.03.46-.07.93-.11,1.39-.02.23-.03.47-.07.7-.03.23-.06.47-.09.7-.03.23-.06.47-.1.7-.02.12-.03.24-.05.35l-.07.35c-.09.47-.18.94-.27,1.41-.11.47-.23.93-.34,1.4-.11.47-.26.93-.4,1.4-.07.23-.14.47-.21.7-.08.23-.16.46-.25.69-.08.23-.17.46-.25.69-.08.23-.17.46-.27.68-.2.45-.39.9-.59,1.35-.43.88-.87,1.77-1.39,2.62-.13.21-.25.43-.38.64l-.39.6-.39.59c-.13.19-.27.38-.4.57-.27.38-.53.76-.81,1.12-.28.37-.55.73-.83,1.08-1.12,1.41-2.28,2.71-3.44,3.92-2.33,2.43-4.66,4.53-6.83,6.53-.54.5-1.07.99-1.6,1.47-.5.48-1,.95-1.49,1.42-.47.48-.94.96-1.39,1.43-.22.24-.44.49-.65.73-.22.24-.44.47-.63.72-1.64,1.94-2.98,3.94-4.02,5.91-1.04,1.97-1.77,3.92-2.29,5.69-.13.45-.25.88-.36,1.29-.1.42-.19.83-.28,1.22-.04.2-.09.39-.13.58-.03.19-.07.38-.1.56-.07.36-.13.71-.19,1.04-.11.66-.18,1.25-.26,1.77-.02.13-.04.25-.05.37-.01.12-.02.23-.04.34-.02.22-.04.42-.06.6-.08.71-.12,1.09-.12,1.09,0,0-.04-.38-.11-1.09-.08-.72-.15-1.78-.19-3.16,0-.35,0-.71,0-1.09,0-.19,0-.39,0-.59,0-.2.02-.41.03-.62.02-.42.05-.87.07-1.32.05-.46.1-.94.15-1.43.25-1.97.7-4.23,1.54-6.6.83-2.38,2.05-4.86,3.63-7.26.19-.31.4-.6.61-.9.21-.3.42-.6.63-.9.44-.59.9-1.17,1.36-1.76.48-.57.97-1.16,1.47-1.72.49-.56,1-1.12,1.51-1.67,2.04-2.24,4.19-4.49,6.27-6.88,1.04-1.2,2.06-2.43,3.03-3.71.25-.32.48-.65.72-.97.24-.32.47-.66.7-.99l.34-.5.33-.51.33-.51.3-.51c.41-.67.76-1.39,1.12-2.09.16-.36.33-.72.49-1.08.09-.18.15-.36.23-.55.07-.18.14-.37.22-.55.07-.18.15-.37.21-.55.06-.19.13-.38.19-.56.12-.38.27-.74.36-1.13.11-.38.22-.76.32-1.13.09-.38.18-.76.27-1.14l.07-.28c.02-.1.04-.19.05-.29.04-.19.07-.38.11-.57.04-.19.07-.38.11-.57.04-.19.05-.38.08-.57.05-.38.11-.76.15-1.14.03-.38.07-.76.1-1.14l.03-.28v-.28c.02-.19.03-.38.04-.57.02-.38.04-.75.03-1.12,0-.37,0-.74,0-1.11-.02-.37-.04-.73-.06-1.1-.01-.18-.01-.37-.03-.55-.02-.18-.04-.36-.05-.54-.04-.36-.06-.72-.11-1.07-.11-.7-.19-1.4-.35-2.07-.25-1.36-.64-2.65-1.05-3.88-.86-2.45-1.97-4.64-3.16-6.5-1.19-1.86-2.47-3.41-3.69-4.65-1.22-1.25-2.36-2.23-3.36-2.94-.25-.18-.48-.36-.7-.51-.23-.15-.44-.29-.63-.42-.2-.13-.38-.25-.55-.36-.17-.1-.33-.19-.47-.27-.56-.32-.85-.49-.85-.49Z"/>
  </g>
  <text class="cls-3" transform="translate(138.18 513.46)"><tspan class="cls-8" x="0" y="0">D</tspan><tspan class="cls-7" x="22.15" y="0">A</tspan><tspan class="cls-1" x="39.59" y="0">VID KAM</tspan><tspan class="cls-6" x="172.24" y="0">A</tspan><tspan class="cls-2" x="191.75" y="0">U </tspan><tspan class="cls-9" x="221.53" y="0">B</tspan><tspan class="cls-1" x="239.73" y="0">UILDS</tspan></text>
  <text class="cls-4" transform="translate(169.38 542.26)"><tspan x="0" y="0">YOUR STACK’S NEW BEST FRIEND</tspan></text>
</svg>